<svg width="48" height="39" viewBox="0 0 48 39" fill="none" xmlns="http://www.w3.org/2000/svg">
<ellipse cx="21" cy="4.83951" rx="6" ry="4.83951" fill="#292355"/>
<path d="M17.4683 5.04111H24.4097C25.3844 5.04111 26.0297 6.05274 25.6188 6.93656L22.3794 13.904C21.9153 14.9023 20.5096 14.9398 19.993 13.9675L16.2909 7.00006C15.819 6.11199 16.4627 5.04111 17.4683 5.04111Z" stroke="#292355" stroke-width="0.666667"/>
<ellipse cx="21" cy="5" rx="3" ry="2" fill="white"/>
<ellipse cx="38.5306" cy="29.6543" rx="4.53061" ry="3.65432" fill="#292355"/>
<path d="M35.8638 29.8065H41.1053C41.8413 29.8065 42.3285 30.5704 42.0183 31.2377L39.5722 36.4989C39.2217 37.2527 38.1603 37.281 37.7702 36.5468L34.9747 31.2857C34.6184 30.6151 35.1045 29.8065 35.8638 29.8065Z" stroke="#292355" stroke-width="0.503401"/>
<ellipse cx="38.5306" cy="29.7755" rx="2.26531" ry="1.5102" fill="white"/>
<path d="M18.8525 11C8.51914 16.6667 -8.24753 27.5 7.35247 25.5C22.9525 23.5 28.5192 22.6667 29.3525 22.5C39.3525 20.6667 55.7525 19.3 41.3525 28.5" stroke="#292355"/>
</svg>
